<svg width="512" height="512" viewBox="0 0 512 512" fill="none" xmlns="http://www.w3.org/2000/svg">
<path d="M300.403 121.626C323.928 121.319 348.67 121.495 372.197 121.624C377.356 126.267 389.446 139.548 394.809 145.292C407.14 158.502 421.598 172.726 433.413 186.17C436.641 189.49 439.785 192.723 442.898 196.16C450.849 204.242 459.904 213.649 467.486 222.094L467.553 331.857C467.579 349.772 467.098 371.703 467.807 389.381L404.683 454.773C395.618 464.202 385.31 474.501 376.683 484.178C322.253 484.684 267.251 483.848 213.022 484.599L278.781 402.701L318.509 402.649C326.231 402.646 335.803 402.879 343.328 402.342C358.278 386.991 376.029 367.921 390.31 351.965C390.403 321.936 390.946 287.999 390.084 258.165L362.195 228.488C357.517 223.465 350.515 215.532 345.624 211.173L311.222 211.168C299.878 233.259 288.015 255.768 277.05 278.016C297.808 278.168 319.14 278.293 339.897 278.073L169.724 499.2L168.016 498.336C172.845 486.186 179.27 472.287 184.538 460.133L220.23 378.449C226.104 365.058 234.548 347.188 239.526 333.821C220.667 333.429 201.573 333.55 182.708 333.585L251.039 211.96C267.858 181.849 284.545 152.244 300.403 121.626Z" fill="#01315B"/>
<path d="M216.592 12.4277C219.796 13.7379 225.418 18.2837 228.18 20.6018C248.956 38.0396 262.268 60.6595 264.518 87.9454C268.866 140.698 232.302 177.281 200.986 214.293C189.307 228.096 177.987 241.673 167.027 255.903C142.807 287.35 123.637 320.141 127.641 361.628C131.076 397.196 148.901 419.976 175.105 442.138C170.773 452.597 165.158 464.33 160.439 474.744C155.122 472.508 150.837 470.586 145.683 468.003C92.5606 441.269 52.8341 393.575 45.4497 333.364C37.4713 268.303 68.3962 212.976 112.587 167.814C146.524 133.132 188.049 100.973 209.891 57.0235C216.61 43.4296 218.42 27.4204 216.592 12.4277Z" fill="#FE7413"/>
</svg>
